<?xml version="1.0" standalone="no"?>
<!DOCTYPE svg PUBLIC "-//W3C//DTD SVG 20010904//EN"
 "http://www.w3.org/TR/2001/REC-SVG-20010904/DTD/svg10.dtd">
<svg version="1.0" xmlns="http://www.w3.org/2000/svg"
 width="256.000000pt" height="256.000000pt" viewBox="0 0 256.000000 256.000000"
 preserveAspectRatio="xMidYMid meet">
<metadata>
Created by potrace 1.11, written by Peter Selinger 2001-2013
</metadata>
<g transform="translate(0.000000,256.000000) scale(0.100000,-0.100000)"
fill="#000000" stroke="none">
<path d="M1160 2550 c-382 -39 -731 -246 -935 -554 -150 -229 -218 -449 -218
-716 0 -208 42 -388 128 -561 163 -325 437 -558 772 -658 131 -39 234 -53 373
-53 139 0 242 14 373 53 383 114 692 411 831 797 92 258 92 586 0 844 -156
434 -528 752 -975 832 -108 19 -254 26 -349 16z m852 -711 c67 -14 162 -59
211 -99 l37 -31 0 -105 0 -105 -62 3 -61 3 -21 79 c-20 78 -22 81 -66 103 -94
48 -239 49 -337 2 -49 -24 -123 -100 -152 -157 -47 -92 -65 -274 -41 -403 13
-68 58 -165 98 -210 41 -47 119 -88 188 -99 70 -12 189 3 250 29 l44 20 0 125
0 126 -90 0 -90 0 0 60 0 60 175 0 175 0 0 -204 0 -205 -37 -31 c-49 -40 -144
-85 -211 -99 -76 -16 -238 -14 -307 4 -87 23 -149 61 -219 136 -109 115 -156
243 -156 429 0 52 7 127 15 165 41 196 180 352 356 399 65 18 228 20 301 5z
m-997 -32 c114 -53 165 -125 173 -245 6 -96 -13 -147 -80 -207 -28 -25 -58
-45 -67 -46 -9 0 6 -11 34 -25 63 -31 96 -63 131 -127 26 -47 29 -61 28 -142
0 -60 -6 -102 -16 -127 -26 -59 -92 -122 -161 -154 l-62 -29 -347 -3 -348 -3
0 50 c0 55 0 55 83 67 l47 6 0 448 0 448 -47 6 c-83 12 -83 12 -83 67 l0 50
328 -3 327 -3 60 -28z"/>
<path d="M600 1534 l0 -186 153 4 c130 3 158 7 187 24 57 33 80 77 80 151 0
150 -71 193 -317 193 l-103 0 0 -186z"/>
<path d="M600 1024 l0 -206 163 4 c182 5 213 13 264 71 50 57 57 162 17 243
-39 78 -87 93 -301 94 l-143 0 0 -206z"/>
</g>
</svg>
